<svg version="1.0" xmlns="http://www.w3.org/2000/svg" width="1080.000000pt" height="1080.000000pt" viewBox="0 0 1080.000000 1080.000000" preserveAspectRatio="xMidYMid meet">

<g transform="translate(0.000000,1080.000000) scale(0.100000,-0.100000)" fill="#000000" stroke="none">
<path d="M3360 10794 c-306 -22 -660 -95 -957 -198 -951 -332 -1747 -1086
-2130 -2020 -405 -986 -356 -2098 132 -3034 l64 -123 -59 -112 c-498 -941
-543 -2096 -120 -3084 329 -766 922 -1403 1661 -1782 555 -285 1129 -416 1744
-398 553 16 1036 137 1527 382 l146 74 119 -65 c404 -219 859 -360 1338 -416
143 -16 607 -16 750 0 1085 126 2028 697 2620 1587 546 822 732 1823 516 2785
-65 291 -157 549 -297 828 l-93 185 69 131 c393 747 508 1624 321 2456 -64
288 -149 525 -287 805 -712 1445 -2291 2235 -3889 1945 -115 -21 -381 -93
-510 -137 -170 -60 -329 -128 -493 -213 l-134 -69 -131 69 c-377 197 -772 322
-1212 381 -145 19 -553 33 -695 23z m510 -829 c182 -17 327 -45 500 -95 147
-42 300 -98 300 -109 0 -3 -30 -36 -66 -71 -154 -150 -346 -401 -488 -635
-298 -493 -469 -1042 -508 -1631 l-12 -181 -200 -11 c-522 -30 -1005 -162
-1465 -403 -291 -152 -540 -330 -808 -577 -101 -92 -103 -94 -112 -69 -201
528 -243 1066 -126 1614 96 456 336 920 654 1268 599 656 1455 986 2331 900z
m3557 4 c854 -72 1615 -522 2090 -1234 192 -289 335 -630 402 -963 41 -199 51
-287 58 -492 9 -267 -19 -523 -86 -783 -27 -104 -98 -317 -118 -351 -6 -11
-35 11 -128 95 -658 602 -1451 926 -2332 955 -352 12 -657 -21 -998 -108 -270
-68 -506 -157 -757 -284 l-127 -65 -128 70 c-234 129 -582 265 -805 317 l-78
18 0 100 c1 404 121 878 317 1246 321 604 837 1064 1463 1303 400 154 805 212
1227 176z m-3423 -3579 c321 -48 650 -157 917 -305 505 -279 903 -687 1156
-1185 272 -535 363 -1140 263 -1732 -146 -853 -693 -1600 -1465 -1999 -678
-350 -1470 -405 -2200 -152 -859 298 -1540 1042 -1766 1927 -111 434 -117 873
-19 1311 249 1116 1181 1976 2313 2135 202 28 209 28 447 24 149 -2 257 -10
354 -24z m3489 -25 c957 -105 1790 -690 2207 -1550 199 -412 294 -859 277
-1310 -7 -186 -18 -280 -54 -460 -104 -526 -365 -1014 -753 -1405 -428 -432
-959 -698 -1585 -795 -293 -46 -715 -25 -1025 50 -174 43 -450 135 -450 152 0
2 45 53 99 111 374 402 630 827 801 1328 189 553 237 1167 139 1754 -56 338
-174 698 -331 1015 -121 244 -342 568 -524 768 -49 54 -99 111 -112 127 l-23
28 83 32 c370 142 838 200 1251 155z" data-index="0" style="opacity: 1;"></path>
</g>
</svg>