<?xml version="1.0" encoding="UTF-8"?>
<svg xmlns="http://www.w3.org/2000/svg" viewBox="0 0 500 500" width="500" height="500">
  <path d="M 240.75,192.45 A 14.30,14.30 0 1,0 269.35,192.45 A 14.30,14.30 0 1,0 240.75,192.45 Z" fill="white"/>
  <path d="M 277.33,306.16 A 15.72,15.72 0 1,0 308.77,306.16 A 15.72,15.72 0 1,0 277.33,306.16 Z" fill="white"/>
  <path d="M 152.63,235.77 A 16.91,16.91 0 1,0 186.46,235.77 A 16.91,16.91 0 1,0 152.63,235.77 Z" fill="white"/>
  <path d="M 309.11,200.97 A 17.97,17.97 0 1,0 345.04,200.97 A 17.97,17.97 0 1,0 309.11,200.97 Z" fill="white"/>
  <path d="M 205.10,346.64 A 18.92,18.92 0 1,0 242.94,346.64 A 18.92,18.92 0 1,0 205.10,346.64 Z" fill="white"/>
  <path d="M 180.39,154.08 A 19.79,19.79 0 1,0 219.98,154.08 A 19.79,19.79 0 1,0 180.39,154.08 Z" fill="white"/>
  <path d="M 337.93,289.64 A 20.61,20.61 0 1,0 379.14,289.64 A 20.61,20.61 0 1,0 337.93,289.64 Z" fill="white"/>
  <path d="M 115.34,296.76 A 21.37,21.37 0 1,0 158.08,296.76 A 21.37,21.37 0 1,0 115.34,296.76 Z" fill="white"/>
  <path d="M 282.67,132.99 A 22.09,22.09 0 1,0 326.85,132.99 A 22.09,22.09 0 1,0 282.67,132.99 Z" fill="white"/>
  <path d="M 267.76,379.29 A 22.78,22.78 0 1,0 313.33,379.29 A 22.78,22.78 0 1,0 267.76,379.29 Z" fill="white"/>
  <path d="M 104.12,179.04 A 23.44,23.44 0 1,0 151.00,179.04 A 23.44,23.44 0 1,0 104.12,179.04 Z" fill="white"/>
  <path d="M 369.79,218.38 A 24.07,24.07 0 1,0 417.93,218.38 A 24.07,24.07 0 1,0 369.79,218.38 Z" fill="white"/>
  <path d="M 137.40,375.04 A 24.68,24.68 0 1,0 186.76,375.04 A 24.68,24.68 0 1,0 137.40,375.04 Z" fill="white"/>
  <path d="M 204.42,93.09 A 25.26,25.26 0 1,0 254.94,93.09 A 25.26,25.26 0 1,0 204.42,93.09 Z" fill="white"/>
  <path d="M 349.12,355.32 A 25.83,25.83 0 1,0 400.77,355.32 A 25.83,25.83 0 1,0 349.12,355.32 Z" fill="white"/>
  <path d="M 55.33,256.95 A 26.38,26.38 0 1,0 108.08,256.95 A 26.38,26.38 0 1,0 55.33,256.95 Z" fill="white"/>
  <path d="M 345.96,127.75 A 26.91,26.91 0 1,0 399.77,127.75 A 26.91,26.91 0 1,0 345.96,127.75 Z" fill="white"/>
  <path d="M 214.33,427.88 A 27.43,27.43 0 1,0 269.19,427.88 A 27.43,27.43 0 1,0 214.33,427.88 Z" fill="white"/>
  <path d="M 105.02,109.72 A 27.93,27.93 0 1,0 160.88,109.72 A 27.93,27.93 0 1,0 105.02,109.72 Z" fill="white"/>
  <path d="M 407.11,274.98 A 28.42,28.42 0 1,0 463.96,274.98 A 28.42,28.42 0 1,0 407.11,274.98 Z" fill="white"/>
  <path d="M 63.80,359.42 A 28.90,28.90 0 1,0 121.60,359.42 A 28.90,28.90 0 1,0 63.80,359.42 Z" fill="white"/>
  <path d="M 263.65,58.86 A 29.37,29.37 0 1,0 322.39,58.86 A 29.37,29.37 0 1,0 263.65,58.86 Z" fill="white"/>
  <path d="M 319.65,423.66 A 29.83,29.83 0 1,0 379.32,423.66 A 29.83,29.83 0 1,0 319.65,423.66 Z" fill="white"/>
  <path d="M 25.12,187.90 A 30.28,30.28 0 1,0 85.69,187.90 A 30.28,30.28 0 1,0 25.12,187.90 Z" fill="white"/>
  <path d="M 408.39,162.65 A 30.72,30.72 0 1,0 469.84,162.65 A 30.72,30.72 0 1,0 408.39,162.65 Z" fill="white"/>
  <path d="M 136.87,445.81 A 31.16,31.16 0 1,0 199.18,445.81 A 31.16,31.16 0 1,0 136.87,445.81 Z" fill="white"/>
  <path d="M 145.28,46.58 A 31.58,31.58 0 1,0 208.44,46.58 A 31.58,31.58 0 1,0 145.28,46.58 Z" fill="white"/>
  <path d="M 412.73,352.37 A 32.00,32.00 0 1,0 476.73,352.37 A 32.00,32.00 0 1,0 412.73,352.37 Z" fill="white"/>
</svg>
